{"asset":{"generator":"Khronos glTF Blender I/O v5.2.40","version":"2.0"},"extensionsUsed":["KHR_materials_emissive_strength","EXT_texture_webp"],"scene":0,"scenes":[{"name":"CYBERPUNK | SIX ARCHITECTURES","nodes":[0,1,2,3,4,5]}],"nodes":[{"extras":{"part":"Foundation","asset_id":"07_Commercial"},"mesh":0,"name":"07_Commercial_GameMesh"},{"extras":{"part":"Podium_plinth","asset_id":"08_ORION"},"mesh":1,"name":"08_ORION_GameMesh"},{"extras":{"part":"Base_plinth","asset_id":"09_NC77"},"mesh":2,"name":"09_NC77_GameMesh"},{"extras":{"part":"Cylindrical_plinth","asset_id":"10_AdCylinder"},"mesh":3,"name":"10_AdCylinder_GameMesh"},{"extras":{"part":"Stepped_foundation","asset_id":"11_CentralRing"},"mesh":4,"name":"11_CentralRing_GameMesh"},{"extras":{"part":"Foundation","asset_id":"12_KAEL"},"mesh":5,"name":"12_KAEL_GameMesh"}],"materials":[{"doubleSided":true,"name":"Concrete","normalTexture":{"index":0,"scale":0.550000011920929},"pbrMetallicRoughness":{"baseColorTexture":{"index":1},"metallicFactor":0.11999999731779099,"roughnessFactor":0.7699999809265137}},{"doubleSided":true,"name":"Interior","pbrMetallicRoughness":{"baseColorFactor":[0.14000000059604645,0.20000000298023224,0.25,1],"metallicFactor":0.10000000149011612,"roughnessFactor":0.7200000286102295}},{"doubleSided":true,"name":"Metal","normalTexture":{"index":2,"scale":0.550000011920929},"pbrMetallicRoughness":{"baseColorTexture":{"index":3},"metallicFactor":0.6499999761581421,"roughnessFactor":0.47999998927116394}},{"doubleSided":true,"name":"Wood","pbrMetallicRoughness":{"baseColorFactor":[0.27000001072883606,0.12999999523162842,0.07000000029802322,1],"metallicFactor":0.05000000074505806,"roughnessFactor":0.6200000047683716}},{"doubleSided":true,"name":"Trim","pbrMetallicRoughness":{"baseColorFactor":[0.054999999701976776,0.07800000160932541,0.10499999672174454,1],"metallicFactor":0.6499999761581421,"roughnessFactor":0.3700000047683716}},{"doubleSided":true,"emissiveFactor":[1,0.550000011920929,0.1899999976158142],"extensions":{"KHR_materials_emissive_strength":{"emissiveStrength":1.5}},"name":"Warm","pbrMetallicRoughness":{"baseColorFactor":[1,0.550000011920929,0.1899999976158142,1],"metallicFactor":0.10000000149011612,"roughnessFactor":0.3499999940395355}},{"alphaMode":"BLEND","doubleSided":true,"name":"Glass","pbrMetallicRoughness":{"baseColorFactor":[0.03999999910593033,0.14000000059604645,0.1899999976158142,0.07000000029802322],"metallicFactor":0.11999999731779099,"roughnessFactor":0.1599999964237213}},{"doubleSided":true,"name":"Black","pbrMetallicRoughness":{"baseColorFactor":[0.014000000432133675,0.023000000044703484,0.03400000184774399,1],"metallicFactor":0.44999998807907104,"roughnessFactor":0.4000000059604645}},{"doubleSided":true,"emissiveFactor":[0.10000000149011612,0.10000000149011612,0.10000000149011612],"emissiveTexture":{"index":4},"name":"Apartment","pbrMetallicRoughness":{"baseColorTexture":{"index":5},"metallicFactor":0.3799999952316284,"roughnessFactor":0.30000001192092896}},{"doubleSided":true,"name":"Fan","pbrMetallicRoughness":{"baseColorTexture":{"index":6},"metallicFactor":0.4000000059604645,"roughnessFactor":0.6499999761581421}},{"doubleSided":true,"emissiveFactor":[1,1,1],"emissiveTexture":{"index":7},"extensions":{"KHR_materials_emissive_strength":{"emissiveStrength":1.7999999523162842}},"name":"Cafe","pbrMetallicRoughness":{"baseColorTexture":{"index":8},"metallicFactor":0.05000000074505806,"roughnessFactor":0.4399999976158142}},{"doubleSided":true,"emissiveFactor":[1,1,1],"emissiveTexture":{"index":9},"extensions":{"KHR_materials_emissive_strength":{"emissiveStrength":2}},"name":"Drink","pbrMetallicRoughness":{"baseColorTexture":{"index":10},"metallicFactor":0.05000000074505806,"roughnessFactor":0.4399999976158142}},{"doubleSided":true,"emissiveFactor":[1,1,1],"emissiveTexture":{"index":11},"extensions":{"KHR_materials_emissive_strength":{"emissiveStrength":1.7999999523162842}},"name":"Future","pbrMetallicRoughness":{"baseColorTexture":{"index":12},"metallicFactor":0.05000000074505806,"roughnessFactor":0.4399999976158142}},{"doubleSided":true,"emissiveFactor":[1,1,1],"emissiveTexture":{"index":13},"extensions":{"KHR_materials_emissive_strength":{"emissiveStrength":1.7999999523162842}},"name":"Bar","pbrMetallicRoughness":{"baseColorTexture":{"index":14},"metallicFactor":0.05000000074505806,"roughnessFactor":0.4399999976158142}},{"doubleSided":true,"emissiveFactor":[1,0.029411764319174027,0.058823528638348055],"extensions":{"KHR_materials_emissive_strength":{"emissiveStrength":2.1250000596046448}},"name":"Red","pbrMetallicRoughness":{"baseColorFactor":[0.8500000238418579,0.02500000037252903,0.05000000074505806,1],"metallicFactor":0.10000000149011612,"roughnessFactor":0.30000001192092896}},{"doubleSided":true,"emissiveFactor":[0.3199999928474426,0.3199999928474426,0.3199999928474426],"emissiveTexture":{"index":15},"name":"Windows","pbrMetallicRoughness":{"baseColorTexture":{"index":16},"metallicFactor":0.3199999928474426,"roughnessFactor":0.2800000011920929}},{"doubleSided":true,"emissiveFactor":[0.07999999821186066,0.6499999761581421,1],"extensions":{"KHR_materials_emissive_strength":{"emissiveStrength":3}},"name":"Cyan","pbrMetallicRoughness":{"baseColorFactor":[0.07999999821186066,0.6499999761581421,1,1],"metallicFactor":0.20000000298023224,"roughnessFactor":0.25}},{"doubleSided":true,"emissiveFactor":[1,0.05625000139698384,0.47499998696148416],"extensions":{"KHR_materials_emissive_strength":{"emissiveStrength":2.0000000298023224}},"name":"Pink","pbrMetallicRoughness":{"baseColorFactor":[0.800000011920929,0.04500000178813934,0.3799999952316284,1],"metallicFactor":0.15000000596046448,"roughnessFactor":0.30000001192092896}},{"doubleSided":true,"emissiveFactor":[0.47999998927116394,0.7699999809265137,1],"extensions":{"KHR_materials_emissive_strength":{"emissiveStrength":1.5}},"name":"White","pbrMetallicRoughness":{"baseColorFactor":[0.47999998927116394,0.7699999809265137,1,1],"metallicFactor":0.10000000149011612,"roughnessFactor":0.30000001192092896}},{"doubleSided":true,"emissiveFactor":[1,1,1],"emissiveTexture":{"index":17},"extensions":{"KHR_materials_emissive_strength":{"emissiveStrength":1.25}},"name":"ORION","pbrMetallicRoughness":{"baseColorTexture":{"index":18},"metallicFactor":0.05000000074505806,"roughnessFactor":0.4399999976158142}},{"doubleSided":true,"emissiveFactor":[1,1,1],"emissiveTexture":{"index":19},"extensions":{"KHR_materials_emissive_strength":{"emissiveStrength":1.5}},"name":"OrionSign","pbrMetallicRoughness":{"baseColorTexture":{"index":20},"metallicFactor":0.05000000074505806,"roughnessFactor":0.4399999976158142}},{"doubleSided":true,"emissiveFactor":[1,1,1],"emissiveTexture":{"index":21},"extensions":{"KHR_materials_emissive_strength":{"emissiveStrength":1.0499999523162842}},"name":"AD","pbrMetallicRoughness":{"baseColorTexture":{"index":22},"metallicFactor":0.05000000074505806,"roughnessFactor":0.4399999976158142}},{"doubleSided":true,"emissiveFactor":[1,1,1],"emissiveTexture":{"index":23},"name":"Access","pbrMetallicRoughness":{"baseColorTexture":{"index":24},"metallicFactor":0.05000000074505806,"roughnessFactor":0.4399999976158142}},{"doubleSided":true,"emissiveFactor":[1,1,1],"emissiveTexture":{"index":25},"name":"NC77","pbrMetallicRoughness":{"baseColorTexture":{"index":26},"metallicFactor":0.05000000074505806,"roughnessFactor":0.4399999976158142}},{"doubleSided":true,"emissiveFactor":[1,1,1],"emissiveTexture":{"index":27},"extensions":{"KHR_materials_emissive_strength":{"emissiveStrength":1.7000000476837158}},"name":"HOLO","pbrMetallicRoughness":{"baseColorTexture":{"index":28},"metallicFactor":0.05000000074505806,"roughnessFactor":0.4399999976158142}},{"doubleSided":true,"emissiveFactor":[1,1,1],"emissiveTexture":{"index":29},"extensions":{"KHR_materials_emissive_strength":{"emissiveStrength":1.100000023841858}},"name":"KAEL","pbrMetallicRoughness":{"baseColorTexture":{"index":30},"metallicFactor":0.05000000074505806,"roughnessFactor":0.4399999976158142}}],"meshes":[{"name":"Foundation.002","primitives":[{"attributes":{"POSITION":0,"NORMAL":1,"TEXCOORD_0":2},"indices":3,"material":0},{"attributes":{"POSITION":4,"NORMAL":5,"TEXCOORD_0":6},"indices":3,"material":1},{"attributes":{"POSITION":7,"NORMAL":8,"TEXCOORD_0":9},"indices":10,"material":2},{"attributes":{"POSITION":11,"NORMAL":12,"TEXCOORD_0":13},"indices":14,"material":3},{"attributes":{"POSITION":15,"NORMAL":16,"TEXCOORD_0":17},"indices":18,"material":4},{"attributes":{"POSITION":19,"NORMAL":20,"TEXCOORD_0":21},"indices":22,"material":5},{"attributes":{"POSITION":23,"NORMAL":24,"TEXCOORD_0":25},"indices":3,"material":6},{"attributes":{"POSITION":26,"NORMAL":27,"TEXCOORD_0":28},"indices":29,"material":7},{"attributes":{"POSITION":30,"NORMAL":31,"TEXCOORD_0":32},"indices":33,"material":8},{"attributes":{"POSITION":34,"NORMAL":35,"TEXCOORD_0":36},"indices":37,"material":9},{"attributes":{"POSITION":38,"NORMAL":39,"TEXCOORD_0":40},"indices":41,"material":10},{"attributes":{"POSITION":42,"NORMAL":43,"TEXCOORD_0":44},"indices":41,"material":11},{"attributes":{"POSITION":45,"NORMAL":46,"TEXCOORD_0":47},"indices":48,"material":12},{"attributes":{"POSITION":49,"NORMAL":50,"TEXCOORD_0":51},"indices":41,"material":13},{"attributes":{"POSITION":52,"NORMAL":53,"TEXCOORD_0":54},"indices":55,"material":14}]},{"name":"Podium_plinth.001","primitives":[{"attributes":{"POSITION":56,"NORMAL":57,"TEXCOORD_0":58},"indices":59,"material":0},{"attributes":{"POSITION":60,"NORMAL":61,"TEXCOORD_0":62},"indices":63,"material":2},{"attributes":{"POSITION":64,"NORMAL":65,"TEXCOORD_0":66},"indices":67,"material":7},{"attributes":{"POSITION":68,"NORMAL":69,"TEXCOORD_0":70},"indices":71,"material":15},{"attributes":{"POSITION":72,"NORMAL":73,"TEXCOORD_0":74},"indices":22,"material":5},{"attributes":{"POSITION":75,"NORMAL":76,"TEXCOORD_0":77},"indices":78,"material":4},{"attributes":{"POSITION":79,"NORMAL":80,"TEXCOORD_0":81},"indices":22,"material":16},{"attributes":{"POSITION":82,"NORMAL":83,"TEXCOORD_0":84},"indices":22,"material":17},{"attributes":{"POSITION":85,"NORMAL":86,"TEXCOORD_0":87},"indices":88,"material":18},{"attributes":{"POSITION":89,"NORMAL":90,"TEXCOORD_0":91},"indices":92,"material":19},{"attributes":{"POSITION":93,"NORMAL":94,"TEXCOORD_0":95},"indices":41,"material":20},{"attributes":{"POSITION":96,"NORMAL":97,"TEXCOORD_0":98},"indices":41,"material":12},{"attributes":{"POSITION":99,"NORMAL":100,"TEXCOORD_0":101},"indices":102,"material":21},{"attributes":{"POSITION":103,"NORMAL":104,"TEXCOORD_0":105},"indices":106,"material":9},{"attributes":{"POSITION":107,"NORMAL":108,"TEXCOORD_0":109},"indices":110,"material":14}]},{"name":"Base_plinth.001","primitives":[{"attributes":{"POSITION":111,"NORMAL":112,"TEXCOORD_0":113},"indices":3,"material":0},{"attributes":{"POSITION":114,"NORMAL":115,"TEXCOORD_0":116},"indices":117,"material":2},{"attributes":{"POSITION":118,"NORMAL":119,"TEXCOORD_0":120},"indices":121,"material":7},{"attributes":{"POSITION":122,"NORMAL":123,"TEXCOORD_0":124},"indices":41,"material":22},{"attributes":{"POSITION":125,"NORMAL":126,"TEXCOORD_0":127},"indices":128,"material":4},{"attributes":{"POSITION":129,"NORMAL":130,"TEXCOORD_0":131},"indices":132,"material":16},{"attributes":{"POSITION":133,"NORMAL":134,"TEXCOORD_0":135},"indices":136,"material":15},{"attributes":{"POSITION":137,"NORMAL":138,"TEXCOORD_0":139},"indices":140,"material":1},{"attributes":{"POSITION":141,"NORMAL":142,"TEXCOORD_0":143},"indices":14,"material":6},{"attributes":{"POSITION":144,"NORMAL":145,"TEXCOORD_0":146},"indices":14,"material":18},{"attributes":{"POSITION":147,"NORMAL":148,"TEXCOORD_0":149},"indices":48,"material":23},{"attributes":{"POSITION":150,"NORMAL":151,"TEXCOORD_0":152},"indices":102,"material":9},{"attributes":{"POSITION":153,"NORMAL":154,"TEXCOORD_0":155},"indices":156,"material":14}]},{"name":"Cylindrical_plinth.001","primitives":[{"attributes":{"POSITION":157,"NORMAL":158,"TEXCOORD_0":159},"indices":160,"material":0},{"attributes":{"POSITION":161,"NORMAL":162,"TEXCOORD_0":163},"indices":164,"material":2},{"attributes":{"POSITION":165,"NORMAL":166,"TEXCOORD_0":167},"indices":168,"material":7},{"attributes":{"POSITION":169,"NORMAL":170,"TEXCOORD_0":171},"indices":172,"material":21},{"attributes":{"POSITION":173,"NORMAL":174,"TEXCOORD_0":175},"indices":176,"material":4},{"attributes":{"POSITION":177,"NORMAL":178,"TEXCOORD_0":179},"indices":180,"material":17},{"attributes":{"POSITION":181,"NORMAL":182,"TEXCOORD_0":183},"indices":184,"material":16},{"attributes":{"POSITION":185,"NORMAL":186,"TEXCOORD_0":187},"indices":188,"material":18}]},{"name":"Stepped_foundation.001","primitives":[{"attributes":{"POSITION":189,"NORMAL":190,"TEXCOORD_0":191},"indices":192,"material":2},{"attributes":{"POSITION":193,"NORMAL":194,"TEXCOORD_0":195},"indices":196,"material":16},{"attributes":{"POSITION":197,"NORMAL":198,"TEXCOORD_0":199},"indices":200,"material":4}]},{"name":"Foundation.003","primitives":[{"attributes":{"POSITION":201,"NORMAL":202,"TEXCOORD_0":203},"indices":3,"material":0},{"attributes":{"POSITION":204,"NORMAL":205,"TEXCOORD_0":206},"indices":207,"material":2},{"attributes":{"POSITION":208,"NORMAL":209,"TEXCOORD_0":210},"indices":211,"material":7},{"attributes":{"POSITION":212,"NORMAL":213,"TEXCOORD_0":214},"indices":41,"material":24},{"attributes":{"POSITION":215,"NORMAL":216,"TEXCOORD_0":217},"indices":218,"material":15},{"attributes":{"POSITION":219,"NORMAL":220,"TEXCOORD_0":221},"indices":222,"material":4},{"attributes":{"POSITION":223,"NORMAL":224,"TEXCOORD_0":225},"indices":226,"material":16},{"attributes":{"POSITION":227,"NORMAL":228,"TEXCOORD_0":229},"indices":102,"material":12},{"attributes":{"POSITION":230,"NORMAL":231,"TEXCOORD_0":232},"indices":41,"material":22},{"attributes":{"POSITION":233,"NORMAL":234,"TEXCOORD_0":235},"indices":236,"material":25},{"attributes":{"POSITION":237,"NORMAL":238,"TEXCOORD_0":239},"indices":240,"material":19},{"attributes":{"POSITION":241,"NORMAL":242,"TEXCOORD_0":243},"indices":41,"material":21},{"attributes":{"POSITION":244,"NORMAL":245,"TEXCOORD_0":246},"indices":106,"material":9},{"attributes":{"POSITION":247,"NORMAL":248,"TEXCOORD_0":249},"indices":250,"material":14}]}],"textures":[{"sampler":0,"extensions":{"EXT_texture_webp":{"source":0}}},{"sampler":0,"extensions":{"EXT_texture_webp":{"source":1}}},{"sampler":0,"extensions":{"EXT_texture_webp":{"source":0}}},{"sampler":0,"extensions":{"EXT_texture_webp":{"source":1}}},{"sampler":0,"extensions":{"EXT_texture_webp":{"source":2}}},{"sampler":0,"extensions":{"EXT_texture_webp":{"source":2}}},{"sampler":0,"extensions":{"EXT_texture_webp":{"source":3}}},{"sampler":0,"extensions":{"EXT_texture_webp":{"source":4}}},{"sampler":0,"extensions":{"EXT_texture_webp":{"source":4}}},{"sampler":0,"extensions":{"EXT_texture_webp":{"source":5}}},{"sampler":0,"extensions":{"EXT_texture_webp":{"source":5}}},{"sampler":0,"extensions":{"EXT_texture_webp":{"source":6}}},{"sampler":0,"extensions":{"EXT_texture_webp":{"source":6}}},{"sampler":0,"extensions":{"EXT_texture_webp":{"source":7}}},{"sampler":0,"extensions":{"EXT_texture_webp":{"source":7}}},{"sampler":0,"extensions":{"EXT_texture_webp":{"source":8}}},{"sampler":0,"extensions":{"EXT_texture_webp":{"source":8}}},{"sampler":0,"extensions":{"EXT_texture_webp":{"source":9}}},{"sampler":0,"extensions":{"EXT_texture_webp":{"source":9}}},{"sampler":0,"extensions":{"EXT_texture_webp":{"source":10}}},{"sampler":0,"extensions":{"EXT_texture_webp":{"source":10}}},{"sampler":0,"extensions":{"EXT_texture_webp":{"source":11}}},{"sampler":0,"extensions":{"EXT_texture_webp":{"source":11}}},{"sampler":0,"extensions":{"EXT_texture_webp":{"source":12}}},{"sampler":0,"extensions":{"EXT_texture_webp":{"source":12}}},{"sampler":0,"extensions":{"EXT_texture_webp":{"source":13}}},{"sampler":0,"extensions":{"EXT_texture_webp":{"source":13}}},{"sampler":0,"extensions":{"EXT_texture_webp":{"source":14}}},{"sampler":0,"extensions":{"EXT_texture_webp":{"source":14}}},{"sampler":0,"extensions":{"EXT_texture_webp":{"source":15}}},{"sampler":0,"extensions":{"EXT_texture_webp":{"source":15}}}],"images":[{"uri":"../images/city-ddfbf0f800.webp","mimeType":"image/webp","name":"metal_normal"},{"uri":"../images/city-b6cc1335ff.webp","mimeType":"image/webp","name":"metal_albedo"},{"uri":"../images/city-4187d93a9b.webp","mimeType":"image/webp","name":"apartment_window"},{"uri":"../images/city-b67b3fbd7f.webp","mimeType":"image/webp","name":"fan"},{"uri":"../images/city-2e3abddd43.webp","mimeType":"image/webp","name":"sign_cafe"},{"uri":"../images/city-612643df1b.webp","mimeType":"image/webp","name":"sign_drink"},{"uri":"../images/city-f8f5887f90.webp","mimeType":"image/webp","name":"sign_future"},{"uri":"../images/city-6663583507.webp","mimeType":"image/webp","name":"sign_bar"},{"uri":"../images/city-704d6547aa.webp","mimeType":"image/webp","name":"office_windows"},{"uri":"../images/city-40aefc723a.webp","mimeType":"image/webp","name":"screen_orion"},{"uri":"../images/city-bf33257975.webp","mimeType":"image/webp","name":"sign_orion"},{"uri":"../images/city-28048496ea.webp","mimeType":"image/webp","name":"screen_cylinder_reference"},{"uri":"../images/city-eb624b0821.webp","mimeType":"image/webp","name":"sign_access"},{"uri":"../images/city-34f20a9e69.webp","mimeType":"image/webp","name":"sign_nc77"},{"uri":"../images/city-385533a4bb.webp","mimeType":"image/webp","name":"screen_kael"},{"uri":"../images/city-ecc2955422.webp","mimeType":"image/webp","name":"sign_kael"}],"accessors":[{"bufferView":0,"componentType":5126,"count":24,"max":[7.5,0.8999999761581421,6],"min":[-7.5,0,-6],"type":"VEC3"},{"bufferView":1,"componentType":5126,"count":24,"type":"VEC3"},{"bufferView":2,"componentType":5126,"count":24,"type":"VEC2"},{"bufferView":3,"componentType":5123,"count":36,"type":"SCALAR"},{"bufferView":4,"componentType":5126,"count":24,"max":[5.900000095367432,1.1299999952316284,4.400000095367432],"min":[-5.900000095367432,0.9100000262260437,-4.400000095367432],"type":"VEC3"},{"bufferView":5,"componentType":5126,"count":24,"type":"VEC3"},{"bufferView":6,"componentType":5126,"count":24,"type":"VEC2"},{"bufferView":7,"componentType":5126,"count":468,"max":[6.304999828338623,22.559999465942383,5.179999828338623],"min":[-6.304999828338623,1.100000023841858,-4.40500020980835],"type":"VEC3"},{"bufferView":8,"componentType":5126,"count":468,"type":"VEC3"},{"bufferView":9,"componentType":5126,"count":468,"type":"VEC2"},{"bufferView":10,"componentType":5123,"count":726,"type":"SCALAR"},{"bufferView":11,"componentType":5126,"count":240,"max":[3.9000000953674316,2.450000047683716,3],"min":[-3.950000047683716,1.0499999523162842,-2.4000000953674316],"type":"VEC3"},{"bufferView":12,"componentType":5126,"count":240,"type":"VEC3"},{"bufferView":13,"componentType":5126,"count":240,"type":"VEC2"},{"bufferView":14,"componentType":5123,"count":360,"type":"SCALAR"},{"bufferView":15,"componentType":5126,"count":2047,"max":[7.03000020980835,23.260000228881836,5.840000152587891],"min":[-6.175000190734863,1.090000033378601,-4.675000190734863],"type":"VEC3"},{"bufferView":16,"componentType":5126,"count":2047,"type":"VEC3"},{"bufferView":17,"componentType":5126,"count":2047,"type":"VEC2"},{"bufferView":18,"componentType":5123,"count":3096,"type":"SCALAR"},{"bufferView":19,"componentType":5126,"count":48,"max":[4.150000095367432,4.920000076293945,0.17499999701976776],"min":[-4.150000095367432,4.840000152587891,-0.17499999701976776],"type":"VEC3"},{"bufferView":20,"componentType":5126,"count":48,"type":"VEC3"},{"bufferView":21,"componentType":5126,"count":48,"type":"VEC2"},{"bufferView":22,"componentType":5123,"count":72,"type":"SCALAR"},{"bufferView":23,"componentType":5126,"count":24,"max":[-0.574999988079071,4.650000095367432,4.340000152587891],"min":[-4.724999904632568,1.350000023841858,4.300000190734863],"type":"VEC3"},{"bufferView":24,"componentType":5126,"count":24,"type":"VEC3"},{"bufferView":25,"componentType":5126,"count":24,"type":"VEC2"},{"bufferView":26,"componentType":5126,"count":1576,"max":[6.96999979019165,20.850000381469727,4.909999847412109],"min":[-6.014999866485596,1.7799999713897705,-4.650000095367432],"type":"VEC3"},{"bufferView":27,"componentType":5126,"count":1576,"type":"VEC3"},{"bufferView":28,"componentType":5126,"count":1576,"type":"VEC2"},{"bufferView":29,"componentType":5123,"count":2364,"type":"SCALAR"},{"bufferView":30,"componentType":5126,"count":180,"max":[6.014999866485596,20.399999618530273,4.565000057220459],"min":[-6.014999866485596,5.625,-4.565000057220459],"type":"VEC3"},{"bufferView":31,"componentType":5126,"count":180,"type":"VEC3"},{"bufferView":32,"componentType":5126,"count":180,"type":"VEC2"},{"bufferView":33,"componentType":5123,"count":270,"type":"SCALAR"},{"bufferView":34,"componentType":5126,"count":36,"max":[6.304999828338623,22.559999465942383,5.179999828338623],"min":[-6.304999828338623,5.364999771118164,-2.6500000953674316],"type":"VEC3"},{"bufferView":35,"componentType":5126,"count":36,"type":"VEC3"},{"bufferView":36,"componentType":5126,"count":36,"type":"VEC2"},{"bufferView":37,"componentType":5123,"count":54,"type":"SCALAR"},{"bufferView":38,"componentType":5126,"count":4,"max":[-1.5499999523162842,4.710000038146973,4.840000152587891],"min":[-4.050000190734863,4.150000095367432,4.840000152587891],"type":"VEC3"},{"bufferView":39,"componentType":5126,"count":4,"type":"VEC3"},{"bufferView":40,"componentType":5126,"count":4,"type":"VEC2"},{"bufferView":41,"componentType":5123,"count":6,"type":"SCALAR"},{"bufferView":42,"componentType":5126,"count":4,"max":[5.099999904632568,4.710000038146973,4.840000152587891],"min":[1.600000023841858,4.150000095367432,4.840000152587891],"type":"VEC3"},{"bufferView":43,"componentType":5126,"count":4,"type":"VEC3"},{"bufferView":44,"componentType":5126,"count":4,"type":"VEC2"},{"bufferView":45,"componentType":5126,"count":8,"max":[6.96999979019165,16,4.909999847412109],"min":[-5.570000171661377,1.7799999713897705,4.829999923706055],"type":"VEC3"},{"bufferView":46,"componentType":5126,"count":8,"type":"VEC3"},{"bufferView":47,"componentType":5126,"count":8,"type":"VEC2"},{"bufferView":48,"componentType":5123,"count":12,"type":"SCALAR"},{"bufferView":49,"componentType":5126,"count":4,"max":[-2.950000047683716,20.850000381469727,4.260000228881836],"min":[-3.8499999046325684,18.25,4.260000228881836],"type":"VEC3"},{"bufferView":50,"componentType":5126,"count":4,"type":"VEC3"},{"bufferView":51,"componentType":5126,"count":4,"type":"VEC2"},{"bufferView":52,"componentType":5126,"count":98,"max":[2.870000123977661,23.292999267578125,-1.4700000286102295],"min":[-3.0300002098083496,22.626998901367188,-2.069999933242798],"type":"VEC3"},{"bufferView":53,"componentType":5126,"count":98,"type":"VEC3"},{"bufferView":54,"componentType":5126,"count":98,"type":"VEC2"},{"bufferView":55,"componentType":5123,"count":168,"type":"SCALAR"},{"bufferView":56,"componentType":5126,"count":48,"max":[9.5,1.100000023841858,7],"min":[-9.5,0,-7],"type":"VEC3"},{"bufferView":57,"componentType":5126,"count":48,"type":"VEC3"},{"bufferView":58,"componentType":5126,"count":48,"type":"VEC2"},{"bufferView":59,"componentType":5123,"count":84,"type":"SCALAR"},{"bufferView":60,"componentType":5126,"count":368,"max":[9,60.400001525878906,6.5],"min":[-9,1.100000023841858,-6.5],"type":"VEC3"},{"bufferView":61,"componentType":5126,"count":368,"type":"VEC3"},{"bufferView":62,"componentType":5126,"count":368,"type":"VEC2"},{"bufferView":63,"componentType":5123,"count":624,"type":"SCALAR"},{"bufferView":64,"componentType":5126,"count":320,"max":[6.5,55.04999923706055,6.110000133514404],"min":[-6.5,2.3499999046325684,-6.110000133514404],"type":"VEC3"},{"bufferView":65,"componentType":5126,"count":320,"type":"VEC3"},{"bufferView":66,"componentType":5126,"count":320,"type":"VEC2"},{"bufferView":67,"componentType":5123,"count":480,"type":"SCALAR"},{"bufferView":68,"componentType":5126,"count":24,"max":[6.5,44.5,6.110000133514404],"min":[-6.5,2.3499999046325684,-6.110000133514404],"type":"VEC3"},{"bufferView":69,"componentType":5126,"count":24,"type":"VEC3"},{"bufferView":70,"componentType":5126,"count":24,"type":"VEC2"},{"bufferView":71,"componentType":5123,"count":36,"type":"SCALAR"},{"bufferView":72,"componentType":5126,"count":48,"max":[6.400000095367432,9.050000190734863,5.375],"min":[-6.400000095367432,7.349999904632568,5.224999904632568],"type":"VEC3"},{"bufferView":73,"componentType":5126,"count":48,"type":"VEC3"},{"bufferView":74,"componentType":5126,"count":48,"type":"VEC2"},{"bufferView":75,"componentType":5126,"count":1400,"max":[6.059999942779541,66,5.46999979019165],"min":[-5.875,10,-5.380000114440918],"type":"VEC3"},{"bufferView":76,"componentType":5126,"count":1400,"type":"VEC3"},{"bufferView":77,"componentType":5126,"count":1400,"type":"VEC2"},{"bufferView":78,"componentType":5123,"count":2136,"type":"SCALAR"},{"bufferView":79,"componentType":5126,"count":48,"max":[-4.605000019073486,44,5.130000114440918],"min":[-4.695000171661377,20,-5.130000114440918],"type":"VEC3"},{"bufferView":80,"componentType":5126,"count":48,"type":"VEC3"},{"bufferView":81,"componentType":5126,"count":48,"type":"VEC2"},{"bufferView":82,"componentType":5126,"count":48,"max":[4.695000171661377,44,5.130000114440918],"min":[4.605000019073486,20,-5.130000114440918],"type":"VEC3"},{"bufferView":83,"componentType":5126,"count":48,"type":"VEC3"},{"bufferView":84,"componentType":5126,"count":48,"type":"VEC2"},{"bufferView":85,"componentType":5126,"count":96,"max":[5.929999828338623,55.9900016784668,5.199999809265137],"min":[-5.929999828338623,43.709999084472656,-5.199999809265137],"type":"VEC3"},{"bufferView":86,"componentType":5126,"count":96,"type":"VEC3"},{"bufferView":87,"componentType":5126,"count":96,"type":"VEC2"},{"bufferView":88,"componentType":5123,"count":168,"type":"SCALAR"},{"bufferView":89,"componentType":5126,"count":20,"max":[5.699999809265137,55.04999923706055,5.440000057220459],"min":[-5.699999809265137,20.100000381469727,-5.050000190734863],"type":"VEC3"},{"bufferView":90,"componentType":5126,"count":20,"type":"VEC3"},{"bufferView":91,"componentType":5126,"count":20,"type":"VEC2"},{"bufferView":92,"componentType":5123,"count":30,"type":"SCALAR"},{"bufferView":93,"componentType":5126,"count":4,"max":[-0.800000011920929,36.900001525878906,5.440000057220459],"min":[-3.799999952316284,33.099998474121094,5.440000057220459],"type":"VEC3"},{"bufferView":94,"componentType":5126,"count":4,"type":"VEC3"},{"bufferView":95,"componentType":5126,"count":4,"type":"VEC2"},{"bufferView":96,"componentType":5126,"count":4,"max":[4.300000190734863,33.900001525878906,5.440000057220459],"min":[1.2999999523162842,30.100000381469727,5.440000057220459],"type":"VEC3"},{"bufferView":97,"componentType":5126,"count":4,"type":"VEC3"},{"bufferView":98,"componentType":5126,"count":4,"type":"VEC2"},{"bufferView":99,"componentType":5126,"count":12,"max":[6.03000020980835,38.25,5.440000057220459],"min":[-4,24.100000381469727,-3.299999952316284],"type":"VEC3"},{"bufferView":100,"componentType":5126,"count":12,"type":"VEC3"},{"bufferView":101,"componentType":5126,"count":12,"type":"VEC2"},{"bufferView":102,"componentType":5123,"count":18,"type":"SCALAR"},{"bufferView":103,"componentType":5126,"count":16,"max":[3.375,60.400001525878906,3],"min":[-3.4649999141693115,59,-0.9200000166893005],"type":"VEC3"},{"bufferView":104,"componentType":5126,"count":16,"type":"VEC3"},{"bufferView":105,"componentType":5126,"count":16,"type":"VEC2"},{"bufferView":106,"componentType":5123,"count":24,"type":"SCALAR"},{"bufferView":107,"componentType":5126,"count":104,"max":[3.2100000381469727,66.11000061035156,-2.009999990463257],"min":[-3.390000104904175,63.88999938964844,-2.7100000381469727],"type":"VEC3"},{"bufferView":108,"componentType":5126,"count":104,"type":"VEC3"},{"bufferView":109,"componentType":5126,"count":104,"type":"VEC2"},{"bufferView":110,"componentType":5123,"count":168,"type":"SCALAR"},{"bufferView":111,"componentType":5126,"count":24,"max":[9,1.100000023841858,7.5],"min":[-9,0,-7.5],"type":"VEC3"},{"bufferView":112,"componentType":5126,"count":24,"type":"VEC3"},{"bufferView":113,"componentType":5126,"count":24,"type":"VEC2"},{"bufferView":114,"componentType":5126,"count":276,"max":[7.5,61.20000076293945,6],"min":[-7.5,1.100000023841858,-6],"type":"VEC3"},{"bufferView":115,"componentType":5126,"count":276,"type":"VEC3"},{"bufferView":116,"componentType":5126,"count":276,"type":"VEC2"},{"bufferView":117,"componentType":5123,"count":438,"type":"SCALAR"},{"bufferView":118,"componentType":5126,"count":1184,"max":[6.349999904632568,58.900001525878906,6.210000038146973],"min":[-6.349999904632568,1.7000000476837158,-5.480000019073486],"type":"VEC3"},{"bufferView":119,"componentType":5126,"count":1184,"type":"VEC3"},{"bufferView":120,"componentType":5126,"count":1184,"type":"VEC2"},{"bufferView":121,"componentType":5123,"count":1776,"type":"SCALAR"},{"bufferView":122,"componentType":5126,"count":4,"max":[4,4.5,6.210000038146973],"min":[-4,1.7000000476837158,6.210000038146973],"type":"VEC3"},{"bufferView":123,"componentType":5126,"count":4,"type":"VEC3"},{"bufferView":124,"componentType":5126,"count":4,"type":"VEC2"},{"bufferView":125,"componentType":5126,"count":1184,"max":[7.900000095367432,66.80000305175781,6.400000095367432],"min":[-7.900000095367432,1.600000023841858,-6.400000095367432],"type":"VEC3"},{"bufferView":126,"componentType":5126,"count":1184,"type":"VEC3"},{"bufferView":127,"componentType":5126,"count":1184,"type":"VEC2"},{"bufferView":128,"componentType":5123,"count":1788,"type":"SCALAR"},{"bufferView":129,"componentType":5126,"count":296,"max":[6.699999809265137,54.119998931884766,6.309999942779541],"min":[-6.699999809265137,1.4500000476837158,-5.650000095367432],"type":"VEC3"},{"bufferView":130,"componentType":5126,"count":296,"type":"VEC3"},{"bufferView":131,"componentType":5126,"count":296,"type":"VEC2"},{"bufferView":132,"componentType":5123,"count":444,"type":"SCALAR"},{"bufferView":133,"componentType":5126,"count":20,"max":[6.28000020980835,52.29999923706055,5.480000019073486],"min":[-6.28000020980835,6.300000190734863,-5.480000019073486],"type":"VEC3"},{"bufferView":134,"componentType":5126,"count":20,"type":"VEC3"},{"bufferView":135,"componentType":5126,"count":20,"type":"VEC2"},{"bufferView":136,"componentType":5123,"count":30,"type":"SCALAR"},{"bufferView":137,"componentType":5126,"count":984,"max":[5.860000133514404,48.810001373291016,4.715000152587891],"min":[-5.860000133514404,5.590000152587891,-4.715000152587891],"type":"VEC3"},{"bufferView":138,"componentType":5126,"count":984,"type":"VEC3"},{"bufferView":139,"componentType":5126,"count":984,"type":"VEC2"},{"bufferView":140,"componentType":5123,"count":1476,"type":"SCALAR"},{"bufferView":141,"componentType":5126,"count":240,"max":[5.820000171661377,48.459999084472656,4.9039998054504395],"min":[-5.820000171661377,5.880000114440918,4.875999927520752],"type":"VEC3"},{"bufferView":142,"componentType":5126,"count":240,"type":"VEC3"},{"bufferView":143,"componentType":5126,"count":240,"type":"VEC2"},{"bufferView":144,"componentType":5126,"count":240,"max":[4.400000095367432,48.48500061035156,-0.10999999940395355],"min":[-4.400000095367432,9.71500015258789,-0.38999998569488525],"type":"VEC3"},{"bufferView":145,"componentType":5126,"count":240,"type":"VEC3"},{"bufferView":146,"componentType":5126,"count":240,"type":"VEC2"},{"bufferView":147,"componentType":5126,"count":8,"max":[4.150000095367432,58.900001525878906,4.179999828338623],"min":[-4.150000095367432,55.099998474121094,-4.179999828338623],"type":"VEC3"},{"bufferView":148,"componentType":5126,"count":8,"type":"VEC3"},{"bufferView":149,"componentType":5126,"count":8,"type":"VEC2"},{"bufferView":150,"componentType":5126,"count":12,"max":[3,61.20000076293945,2.625],"min":[-3.0799999237060547,59.79999923706055,-0.8050000071525574],"type":"VEC3"},{"bufferView":151,"componentType":5126,"count":12,"type":"VEC3"},{"bufferView":152,"componentType":5126,"count":12,"type":"VEC2"},{"bufferView":153,"componentType":5126,"count":106,"max":[2.870000123977661,66.91000366210938,-1.7400000095367432],"min":[-3.0300002098083496,64.69000244140625,-2.390000104904175],"type":"VEC3"},{"bufferView":154,"componentType":5126,"count":106,"type":"VEC3"},{"bufferView":155,"componentType":5126,"count":106,"type":"VEC2"},{"bufferView":156,"componentType":5123,"count":168,"type":"SCALAR"},{"bufferView":157,"componentType":5126,"count":240,"max":[5.099999904632568,2.6500000953674316,5.099999904632568],"min":[-5.099999904632568,0,-5.099999904632568],"type":"VEC3"},{"bufferView":158,"componentType":5126,"count":240,"type":"VEC3"},{"bufferView":159,"componentType":5126,"count":240,"type":"VEC2"},{"bufferView":160,"componentType":5123,"count":420,"type":"SCALAR"},{"bufferView":161,"componentType":5126,"count":1040,"max":[5.699999809265137,36.54999923706055,5.699999809265137],"min":[-5.699999809265137,2.6500000953674316,-5.699999809265137],"type":"VEC3"},{"bufferView":162,"componentType":5126,"count":1040,"type":"VEC3"},{"bufferView":163,"componentType":5126,"count":1040,"type":"VEC2"},{"bufferView":164,"componentType":5123,"count":1692,"type":"SCALAR"},{"bufferView":165,"componentType":5126,"count":240,"max":[3.9600000381469727,27,3.9600000381469727],"min":[-3.9600000381469727,6,-3.9600000381469727],"type":"VEC3"},{"bufferView":166,"componentType":5126,"count":240,"type":"VEC3"},{"bufferView":167,"componentType":5126,"count":240,"type":"VEC2"},{"bufferView":168,"componentType":5123,"count":480,"type":"SCALAR"},{"bufferView":169,"componentType":5126,"count":96,"max":[3.9600000381469727,27,3.9600000381469727],"min":[-3.9600000381469727,6,-3.9600000381469727],"type":"VEC3"},{"bufferView":170,"componentType":5126,"count":96,"type":"VEC3"},{"bufferView":171,"componentType":5126,"count":96,"type":"VEC2"},{"bufferView":172,"componentType":5123,"count":144,"type":"SCALAR"},{"bufferView":173,"componentType":5126,"count":688,"max":[4.139999866485596,29.700000762939453,4.139999866485596],"min":[-4.139999866485596,2.5,-4.139999866485596],"type":"VEC3"},{"bufferView":174,"componentType":5126,"count":688,"type":"VEC3"},{"bufferView":175,"componentType":5126,"count":688,"type":"VEC2"},{"bufferView":176,"componentType":5123,"count":1296,"type":"SCALAR"},{"bufferView":177,"componentType":5126,"count":400,"max":[5.78000020980835,36.150001525878906,5.78000020980835],"min":[-5.78000020980835,29.915000915527344,-5.78000020980835],"type":"VEC3"},{"bufferView":178,"componentType":5126,"count":400,"type":"VEC3"},{"bufferView":179,"componentType":5126,"count":400,"type":"VEC2"},{"bufferView":180,"componentType":5123,"count":720,"type":"SCALAR"},{"bufferView":181,"componentType":5126,"count":304,"max":[3.8499999046325684,30.350000381469727,3.8499999046325684],"min":[-3.8499999046325684,30.229999542236328,-3.8499999046325684],"type":"VEC3"},{"bufferView":182,"componentType":5126,"count":304,"type":"VEC3"},{"bufferView":183,"componentType":5126,"count":304,"type":"VEC2"},{"bufferView":184,"componentType":5123,"count":576,"type":"SCALAR"},{"bufferView":185,"componentType":5126,"count":192,"max":[5.599999904632568,30.264999389648438,5.599999904632568],"min":[-5.599999904632568,30.075000762939453,-5.599999904632568],"type":"VEC3"},{"bufferView":186,"componentType":5126,"count":192,"type":"VEC3"},{"bufferView":187,"componentType":5126,"count":192,"type":"VEC2"},{"bufferView":188,"componentType":5123,"count":288,"type":"SCALAR"},{"bufferView":189,"componentType":5126,"count":1972,"max":[14.354268074035645,87,14.354268074035645],"min":[-14.354268074035645,0,-14.354268074035645],"type":"VEC3"},{"bufferView":190,"componentType":5126,"count":1972,"type":"VEC3"},{"bufferView":191,"componentType":5126,"count":1972,"type":"VEC2"},{"bufferView":192,"componentType":5123,"count":3336,"type":"SCALAR"},{"bufferView":193,"componentType":5126,"count":896,"max":[12.149999618530273,75.5,12.149999618530273],"min":[-12.149999618530273,3.4800000190734863,-12.149999618530273],"type":"VEC3"},{"bufferView":194,"componentType":5126,"count":896,"type":"VEC3"},{"bufferView":195,"componentType":5126,"count":896,"type":"VEC2"},{"bufferView":196,"componentType":5123,"count":1680,"type":"SCALAR"},{"bufferView":197,"componentType":5126,"count":1301,"max":[11.19999885559082,97,11.19999885559082],"min":[-11.19999885559082,7.724999904632568,-11.19999885559082],"type":"VEC3"},{"bufferView":198,"componentType":5126,"count":1301,"type":"VEC3"},{"bufferView":199,"componentType":5126,"count":1301,"type":"VEC2"},{"bufferView":200,"componentType":5123,"count":2160,"type":"SCALAR"},{"bufferView":201,"componentType":5126,"count":24,"max":[10.5,1.2999999523162842,7],"min":[-10.5,0,-7],"type":"VEC3"},{"bufferView":202,"componentType":5126,"count":24,"type":"VEC3"},{"bufferView":203,"componentType":5126,"count":24,"type":"VEC2"},{"bufferView":204,"componentType":5126,"count":248,"max":[9.149999618530273,62.20000076293945,4.800000190734863],"min":[-9.149999618530273,1.2999999523162842,-4.800000190734863],"type":"VEC3"},{"bufferView":205,"componentType":5126,"count":248,"type":"VEC3"},{"bufferView":206,"componentType":5126,"count":248,"type":"VEC2"},{"bufferView":207,"componentType":5123,"count":396,"type":"SCALAR"},{"bufferView":208,"componentType":5126,"count":500,"max":[8.949999809265137,59.5,5.190000057220459],"min":[-8.949999809265137,1.5499999523162842,-4.550000190734863],"type":"VEC3"},{"bufferView":209,"componentType":5126,"count":500,"type":"VEC3"},{"bufferView":210,"componentType":5126,"count":500,"type":"VEC2"},{"bufferView":211,"componentType":5123,"count":750,"type":"SCALAR"},{"bufferView":212,"componentType":5126,"count":4,"max":[5.949999809265137,58.900001525878906,4.550000190734863],"min":[-5.949999809265137,4.099999904632568,4.550000190734863],"type":"VEC3"},{"bufferView":213,"componentType":5126,"count":4,"type":"VEC3"},{"bufferView":214,"componentType":5126,"count":4,"type":"VEC2"},{"bufferView":215,"componentType":5126,"count":12,"max":[7.340000152587891,59.5,3.799999952316284],"min":[-7.340000152587891,2.5,-4.550000190734863],"type":"VEC3"},{"bufferView":216,"componentType":5126,"count":12,"type":"VEC3"},{"bufferView":217,"componentType":5126,"count":12,"type":"VEC2"},{"bufferView":218,"componentType":5123,"count":18,"type":"SCALAR"},{"bufferView":219,"componentType":5126,"count":2445,"max":[8.90000057220459,67.80000305175781,5.110000133514404],"min":[-8.5,2,-4.764999866485596],"type":"VEC3"},{"bufferView":220,"componentType":5126,"count":2445,"type":"VEC3"},{"bufferView":221,"componentType":5126,"count":2445,"type":"VEC2"},{"bufferView":222,"componentType":5123,"count":3408,"type":"SCALAR"},{"bufferView":223,"componentType":5126,"count":96,"max":[6.477499961853027,58,4.8125],"min":[-6.477499961853027,4,-4.8125],"type":"VEC3"},{"bufferView":224,"componentType":5126,"count":96,"type":"VEC3"},{"bufferView":225,"componentType":5126,"count":96,"type":"VEC2"},{"bufferView":226,"componentType":5123,"count":144,"type":"SCALAR"},{"bufferView":227,"componentType":5126,"count":12,"max":[8.949999809265137,30.75,5.190000057220459],"min":[-8.949999809265137,3.325000047683716,5.079999923706055],"type":"VEC3"},{"bufferView":228,"componentType":5126,"count":12,"type":"VEC3"},{"bufferView":229,"componentType":5126,"count":12,"type":"VEC2"},{"bufferView":230,"componentType":5126,"count":4,"max":[2.5,3.6500000953674316,4.860000133514404],"min":[-2.5,1.5499999523162842,4.860000133514404],"type":"VEC3"},{"bufferView":231,"componentType":5126,"count":4,"type":"VEC3"},{"bufferView":232,"componentType":5126,"count":4,"type":"VEC2"},{"bufferView":233,"componentType":5126,"count":8,"max":[8.470000267028809,51.5,3.3499999046325684],"min":[-8.470000267028809,38,-3.3499999046325684],"type":"VEC3"},{"bufferView":234,"componentType":5126,"count":8,"type":"VEC3"},{"bufferView":235,"componentType":5126,"count":8,"type":"VEC2"},{"bufferView":236,"componentType":5123,"count":12,"type":"SCALAR"},{"bufferView":237,"componentType":5126,"count":8,"max":[8,23.700000762939453,2.450000047683716],"min":[-8,16.299999237060547,-2.25],"type":"VEC3"},{"bufferView":238,"componentType":5126,"count":8,"type":"VEC3"},{"bufferView":239,"componentType":5126,"count":8,"type":"VEC2"},{"bufferView":240,"componentType":5123,"count":12,"type":"SCALAR"},{"bufferView":241,"componentType":5126,"count":4,"max":[-5.800000190734863,16,5.079999923706055],"min":[-7.599999904632568,12,5.079999923706055],"type":"VEC3"},{"bufferView":242,"componentType":5126,"count":4,"type":"VEC3"},{"bufferView":243,"componentType":5126,"count":4,"type":"VEC2"},{"bufferView":244,"componentType":5126,"count":16,"max":[4.875,62.20000076293945,2.7750000953674316],"min":[-5.005000114440918,60.79999923706055,-0.8510000109672546],"type":"VEC3"},{"bufferView":245,"componentType":5126,"count":16,"type":"VEC3"},{"bufferView":246,"componentType":5126,"count":16,"type":"VEC2"},{"bufferView":247,"componentType":5126,"count":106,"max":[4.570000171661377,67.91000366210938,-1.8480000495910645],"min":[-4.829999923706055,65.69000244140625,-2.5180001258850098],"type":"VEC3"},{"bufferView":248,"componentType":5126,"count":106,"type":"VEC3"},{"bufferView":249,"componentType":5126,"count":106,"type":"VEC2"},{"bufferView":250,"componentType":5123,"count":168,"type":"SCALAR"}],"bufferViews":[{"buffer":0,"byteLength":288,"byteOffset":0,"target":34962},{"buffer":0,"byteLength":288,"byteOffset":288,"target":34962},{"buffer":0,"byteLength":192,"byteOffset":576,"target":34962},{"buffer":0,"byteLength":72,"byteOffset":768,"target":34963},{"buffer":0,"byteLength":288,"byteOffset":840,"target":34962},{"buffer":0,"byteLength":288,"byteOffset":1128,"target":34962},{"buffer":0,"byteLength":192,"byteOffset":1416,"target":34962},{"buffer":0,"byteLength":5616,"byteOffset":1608,"target":34962},{"buffer":0,"byteLength":5616,"byteOffset":7224,"target":34962},{"buffer":0,"byteLength":3744,"byteOffset":12840,"target":34962},{"buffer":0,"byteLength":1452,"byteOffset":16584,"target":34963},{"buffer":0,"byteLength":2880,"byteOffset":18036,"target":34962},{"buffer":0,"byteLength":2880,"byteOffset":20916,"target":34962},{"buffer":0,"byteLength":1920,"byteOffset":23796,"target":34962},{"buffer":0,"byteLength":720,"byteOffset":25716,"target":34963},{"buffer":0,"byteLength":24564,"byteOffset":26436,"target":34962},{"buffer":0,"byteLength":24564,"byteOffset":51000,"target":34962},{"buffer":0,"byteLength":16376,"byteOffset":75564,"target":34962},{"buffer":0,"byteLength":6192,"byteOffset":91940,"target":34963},{"buffer":0,"byteLength":576,"byteOffset":98132,"target":34962},{"buffer":0,"byteLength":576,"byteOffset":98708,"target":34962},{"buffer":0,"byteLength":384,"byteOffset":99284,"target":34962},{"buffer":0,"byteLength":144,"byteOffset":99668,"target":34963},{"buffer":0,"byteLength":288,"byteOffset":99812,"target":34962},{"buffer":0,"byteLength":288,"byteOffset":100100,"target":34962},{"buffer":0,"byteLength":192,"byteOffset":100388,"target":34962},{"buffer":0,"byteLength":18912,"byteOffset":100580,"target":34962},{"buffer":0,"byteLength":18912,"byteOffset":119492,"target":34962},{"buffer":0,"byteLength":12608,"byteOffset":138404,"target":34962},{"buffer":0,"byteLength":4728,"byteOffset":151012,"target":34963},{"buffer":0,"byteLength":2160,"byteOffset":155740,"target":34962},{"buffer":0,"byteLength":2160,"byteOffset":157900,"target":34962},{"buffer":0,"byteLength":1440,"byteOffset":160060,"target":34962},{"buffer":0,"byteLength":540,"byteOffset":161500,"target":34963},{"buffer":0,"byteLength":432,"byteOffset":162040,"target":34962},{"buffer":0,"byteLength":432,"byteOffset":162472,"target":34962},{"buffer":0,"byteLength":288,"byteOffset":162904,"target":34962},{"buffer":0,"byteLength":108,"byteOffset":163192,"target":34963},{"buffer":0,"byteLength":48,"byteOffset":163300,"target":34962},{"buffer":0,"byteLength":48,"byteOffset":163348,"target":34962},{"buffer":0,"byteLength":32,"byteOffset":163396,"target":34962},{"buffer":0,"byteLength":12,"byteOffset":163428,"target":34963},{"buffer":0,"byteLength":48,"byteOffset":163440,"target":34962},{"buffer":0,"byteLength":48,"byteOffset":163488,"target":34962},{"buffer":0,"byteLength":32,"byteOffset":163536,"target":34962},{"buffer":0,"byteLength":96,"byteOffset":163568,"target":34962},{"buffer":0,"byteLength":96,"byteOffset":163664,"target":34962},{"buffer":0,"byteLength":64,"byteOffset":163760,"target":34962},{"buffer":0,"byteLength":24,"byteOffset":163824,"target":34963},{"buffer":0,"byteLength":48,"byteOffset":163848,"target":34962},{"buffer":0,"byteLength":48,"byteOffset":163896,"target":34962},{"buffer":0,"byteLength":32,"byteOffset":163944,"target":34962},{"buffer":0,"byteLength":1176,"byteOffset":163976,"target":34962},{"buffer":0,"byteLength":1176,"byteOffset":165152,"target":34962},{"buffer":0,"byteLength":784,"byteOffset":166328,"target":34962},{"buffer":0,"byteLength":336,"byteOffset":167112,"target":34963},{"buffer":0,"byteLength":576,"byteOffset":167448,"target":34962},{"buffer":0,"byteLength":576,"byteOffset":168024,"target":34962},{"buffer":0,"byteLength":384,"byteOffset":168600,"target":34962},{"buffer":0,"byteLength":168,"byteOffset":168984,"target":34963},{"buffer":0,"byteLength":4416,"byteOffset":169152,"target":34962},{"buffer":0,"byteLength":4416,"byteOffset":173568,"target":34962},{"buffer":0,"byteLength":2944,"byteOffset":177984,"target":34962},{"buffer":0,"byteLength":1248,"byteOffset":180928,"target":34963},{"buffer":0,"byteLength":3840,"byteOffset":182176,"target":34962},{"buffer":0,"byteLength":3840,"byteOffset":186016,"target":34962},{"buffer":0,"byteLength":2560,"byteOffset":189856,"target":34962},{"buffer":0,"byteLength":960,"byteOffset":192416,"target":34963},{"buffer":0,"byteLength":288,"byteOffset":193376,"target":34962},{"buffer":0,"byteLength":288,"byteOffset":193664,"target":34962},{"buffer":0,"byteLength":192,"byteOffset":193952,"target":34962},{"buffer":0,"byteLength":72,"byteOffset":194144,"target":34963},{"buffer":0,"byteLength":576,"byteOffset":194216,"target":34962},{"buffer":0,"byteLength":576,"byteOffset":194792,"target":34962},{"buffer":0,"byteLength":384,"byteOffset":195368,"target":34962},{"buffer":0,"byteLength":16800,"byteOffset":195752,"target":34962},{"buffer":0,"byteLength":16800,"byteOffset":212552,"target":34962},{"buffer":0,"byteLength":11200,"byteOffset":229352,"target":34962},{"buffer":0,"byteLength":4272,"byteOffset":240552,"target":34963},{"buffer":0,"byteLength":576,"byteOffset":244824,"target":34962},{"buffer":0,"byteLength":576,"byteOffset":245400,"target":34962},{"buffer":0,"byteLength":384,"byteOffset":245976,"target":34962},{"buffer":0,"byteLength":576,"byteOffset":246360,"target":34962},{"buffer":0,"byteLength":576,"byteOffset":246936,"target":34962},{"buffer":0,"byteLength":384,"byteOffset":247512,"target":34962},{"buffer":0,"byteLength":1152,"byteOffset":247896,"target":34962},{"buffer":0,"byteLength":1152,"byteOffset":249048,"target":34962},{"buffer":0,"byteLength":768,"byteOffset":250200,"target":34962},{"buffer":0,"byteLength":336,"byteOffset":250968,"target":34963},{"buffer":0,"byteLength":240,"byteOffset":251304,"target":34962},{"buffer":0,"byteLength":240,"byteOffset":251544,"target":34962},{"buffer":0,"byteLength":160,"byteOffset":251784,"target":34962},{"buffer":0,"byteLength":60,"byteOffset":251944,"target":34963},{"buffer":0,"byteLength":48,"byteOffset":252004,"target":34962},{"buffer":0,"byteLength":48,"byteOffset":252052,"target":34962},{"buffer":0,"byteLength":32,"byteOffset":252100,"target":34962},{"buffer":0,"byteLength":48,"byteOffset":252132,"target":34962},{"buffer":0,"byteLength":48,"byteOffset":252180,"target":34962},{"buffer":0,"byteLength":32,"byteOffset":252228,"target":34962},{"buffer":0,"byteLength":144,"byteOffset":252260,"target":34962},{"buffer":0,"byteLength":144,"byteOffset":252404,"target":34962},{"buffer":0,"byteLength":96,"byteOffset":252548,"target":34962},{"buffer":0,"byteLength":36,"byteOffset":252644,"target":34963},{"buffer":0,"byteLength":192,"byteOffset":252680,"target":34962},{"buffer":0,"byteLength":192,"byteOffset":252872,"target":34962},{"buffer":0,"byteLength":128,"byteOffset":253064,"target":34962},{"buffer":0,"byteLength":48,"byteOffset":253192,"target":34963},{"buffer":0,"byteLength":1248,"byteOffset":253240,"target":34962},{"buffer":0,"byteLength":1248,"byteOffset":254488,"target":34962},{"buffer":0,"byteLength":832,"byteOffset":255736,"target":34962},{"buffer":0,"byteLength":336,"byteOffset":256568,"target":34963},{"buffer":0,"byteLength":288,"byteOffset":256904,"target":34962},{"buffer":0,"byteLength":288,"byteOffset":257192,"target":34962},{"buffer":0,"byteLength":192,"byteOffset":257480,"target":34962},{"buffer":0,"byteLength":3312,"byteOffset":257672,"target":34962},{"buffer":0,"byteLength":3312,"byteOffset":260984,"target":34962},{"buffer":0,"byteLength":2208,"byteOffset":264296,"target":34962},{"buffer":0,"byteLength":876,"byteOffset":266504,"target":34963},{"buffer":0,"byteLength":14208,"byteOffset":267380,"target":34962},{"buffer":0,"byteLength":14208,"byteOffset":281588,"target":34962},{"buffer":0,"byteLength":9472,"byteOffset":295796,"target":34962},{"buffer":0,"byteLength":3552,"byteOffset":305268,"target":34963},{"buffer":0,"byteLength":48,"byteOffset":308820,"target":34962},{"buffer":0,"byteLength":48,"byteOffset":308868,"target":34962},{"buffer":0,"byteLength":32,"byteOffset":308916,"target":34962},{"buffer":0,"byteLength":14208,"byteOffset":308948,"target":34962},{"buffer":0,"byteLength":14208,"byteOffset":323156,"target":34962},{"buffer":0,"byteLength":9472,"byteOffset":337364,"target":34962},{"buffer":0,"byteLength":3576,"byteOffset":346836,"target":34963},{"buffer":0,"byteLength":3552,"byteOffset":350412,"target":34962},{"buffer":0,"byteLength":3552,"byteOffset":353964,"target":34962},{"buffer":0,"byteLength":2368,"byteOffset":357516,"target":34962},{"buffer":0,"byteLength":888,"byteOffset":359884,"target":34963},{"buffer":0,"byteLength":240,"byteOffset":360772,"target":34962},{"buffer":0,"byteLength":240,"byteOffset":361012,"target":34962},{"buffer":0,"byteLength":160,"byteOffset":361252,"target":34962},{"buffer":0,"byteLength":60,"byteOffset":361412,"target":34963},{"buffer":0,"byteLength":11808,"byteOffset":361472,"target":34962},{"buffer":0,"byteLength":11808,"byteOffset":373280,"target":34962},{"buffer":0,"byteLength":7872,"byteOffset":385088,"target":34962},{"buffer":0,"byteLength":2952,"byteOffset":392960,"target":34963},{"buffer":0,"byteLength":2880,"byteOffset":395912,"target":34962},{"buffer":0,"byteLength":2880,"byteOffset":398792,"target":34962},{"buffer":0,"byteLength":1920,"byteOffset":401672,"target":34962},{"buffer":0,"byteLength":2880,"byteOffset":403592,"target":34962},{"buffer":0,"byteLength":2880,"byteOffset":406472,"target":34962},{"buffer":0,"byteLength":1920,"byteOffset":409352,"target":34962},{"buffer":0,"byteLength":96,"byteOffset":411272,"target":34962},{"buffer":0,"byteLength":96,"byteOffset":411368,"target":34962},{"buffer":0,"byteLength":64,"byteOffset":411464,"target":34962},{"buffer":0,"byteLength":144,"byteOffset":411528,"target":34962},{"buffer":0,"byteLength":144,"byteOffset":411672,"target":34962},{"buffer":0,"byteLength":96,"byteOffset":411816,"target":34962},{"buffer":0,"byteLength":1272,"byteOffset":411912,"target":34962},{"buffer":0,"byteLength":1272,"byteOffset":413184,"target":34962},{"buffer":0,"byteLength":848,"byteOffset":414456,"target":34962},{"buffer":0,"byteLength":336,"byteOffset":415304,"target":34963},{"buffer":0,"byteLength":2880,"byteOffset":415640,"target":34962},{"buffer":0,"byteLength":2880,"byteOffset":418520,"target":34962},{"buffer":0,"byteLength":1920,"byteOffset":421400,"target":34962},{"buffer":0,"byteLength":840,"byteOffset":423320,"target":34963},{"buffer":0,"byteLength":12480,"byteOffset":424160,"target":34962},{"buffer":0,"byteLength":12480,"byteOffset":436640,"target":34962},{"buffer":0,"byteLength":8320,"byteOffset":449120,"target":34962},{"buffer":0,"byteLength":3384,"byteOffset":457440,"target":34963},{"buffer":0,"byteLength":2880,"byteOffset":460824,"target":34962},{"buffer":0,"byteLength":2880,"byteOffset":463704,"target":34962},{"buffer":0,"byteLength":1920,"byteOffset":466584,"target":34962},{"buffer":0,"byteLength":960,"byteOffset":468504,"target":34963},{"buffer":0,"byteLength":1152,"byteOffset":469464,"target":34962},{"buffer":0,"byteLength":1152,"byteOffset":470616,"target":34962},{"buffer":0,"byteLength":768,"byteOffset":471768,"target":34962},{"buffer":0,"byteLength":288,"byteOffset":472536,"target":34963},{"buffer":0,"byteLength":8256,"byteOffset":472824,"target":34962},{"buffer":0,"byteLength":8256,"byteOffset":481080,"target":34962},{"buffer":0,"byteLength":5504,"byteOffset":489336,"target":34962},{"buffer":0,"byteLength":2592,"byteOffset":494840,"target":34963},{"buffer":0,"byteLength":4800,"byteOffset":497432,"target":34962},{"buffer":0,"byteLength":4800,"byteOffset":502232,"target":34962},{"buffer":0,"byteLength":3200,"byteOffset":507032,"target":34962},{"buffer":0,"byteLength":1440,"byteOffset":510232,"target":34963},{"buffer":0,"byteLength":3648,"byteOffset":511672,"target":34962},{"buffer":0,"byteLength":3648,"byteOffset":515320,"target":34962},{"buffer":0,"byteLength":2432,"byteOffset":518968,"target":34962},{"buffer":0,"byteLength":1152,"byteOffset":521400,"target":34963},{"buffer":0,"byteLength":2304,"byteOffset":522552,"target":34962},{"buffer":0,"byteLength":2304,"byteOffset":524856,"target":34962},{"buffer":0,"byteLength":1536,"byteOffset":527160,"target":34962},{"buffer":0,"byteLength":576,"byteOffset":528696,"target":34963},{"buffer":0,"byteLength":23664,"byteOffset":529272,"target":34962},{"buffer":0,"byteLength":23664,"byteOffset":552936,"target":34962},{"buffer":0,"byteLength":15776,"byteOffset":576600,"target":34962},{"buffer":0,"byteLength":6672,"byteOffset":592376,"target":34963},{"buffer":0,"byteLength":10752,"byteOffset":599048,"target":34962},{"buffer":0,"byteLength":10752,"byteOffset":609800,"target":34962},{"buffer":0,"byteLength":7168,"byteOffset":620552,"target":34962},{"buffer":0,"byteLength":3360,"byteOffset":627720,"target":34963},{"buffer":0,"byteLength":15612,"byteOffset":631080,"target":34962},{"buffer":0,"byteLength":15612,"byteOffset":646692,"target":34962},{"buffer":0,"byteLength":10408,"byteOffset":662304,"target":34962},{"buffer":0,"byteLength":4320,"byteOffset":672712,"target":34963},{"buffer":0,"byteLength":288,"byteOffset":677032,"target":34962},{"buffer":0,"byteLength":288,"byteOffset":677320,"target":34962},{"buffer":0,"byteLength":192,"byteOffset":677608,"target":34962},{"buffer":0,"byteLength":2976,"byteOffset":677800,"target":34962},{"buffer":0,"byteLength":2976,"byteOffset":680776,"target":34962},{"buffer":0,"byteLength":1984,"byteOffset":683752,"target":34962},{"buffer":0,"byteLength":792,"byteOffset":685736,"target":34963},{"buffer":0,"byteLength":6000,"byteOffset":686528,"target":34962},{"buffer":0,"byteLength":6000,"byteOffset":692528,"target":34962},{"buffer":0,"byteLength":4000,"byteOffset":698528,"target":34962},{"buffer":0,"byteLength":1500,"byteOffset":702528,"target":34963},{"buffer":0,"byteLength":48,"byteOffset":704028,"target":34962},{"buffer":0,"byteLength":48,"byteOffset":704076,"target":34962},{"buffer":0,"byteLength":32,"byteOffset":704124,"target":34962},{"buffer":0,"byteLength":144,"byteOffset":704156,"target":34962},{"buffer":0,"byteLength":144,"byteOffset":704300,"target":34962},{"buffer":0,"byteLength":96,"byteOffset":704444,"target":34962},{"buffer":0,"byteLength":36,"byteOffset":704540,"target":34963},{"buffer":0,"byteLength":29340,"byteOffset":704576,"target":34962},{"buffer":0,"byteLength":29340,"byteOffset":733916,"target":34962},{"buffer":0,"byteLength":19560,"byteOffset":763256,"target":34962},{"buffer":0,"byteLength":6816,"byteOffset":782816,"target":34963},{"buffer":0,"byteLength":1152,"byteOffset":789632,"target":34962},{"buffer":0,"byteLength":1152,"byteOffset":790784,"target":34962},{"buffer":0,"byteLength":768,"byteOffset":791936,"target":34962},{"buffer":0,"byteLength":288,"byteOffset":792704,"target":34963},{"buffer":0,"byteLength":144,"byteOffset":792992,"target":34962},{"buffer":0,"byteLength":144,"byteOffset":793136,"target":34962},{"buffer":0,"byteLength":96,"byteOffset":793280,"target":34962},{"buffer":0,"byteLength":48,"byteOffset":793376,"target":34962},{"buffer":0,"byteLength":48,"byteOffset":793424,"target":34962},{"buffer":0,"byteLength":32,"byteOffset":793472,"target":34962},{"buffer":0,"byteLength":96,"byteOffset":793504,"target":34962},{"buffer":0,"byteLength":96,"byteOffset":793600,"target":34962},{"buffer":0,"byteLength":64,"byteOffset":793696,"target":34962},{"buffer":0,"byteLength":24,"byteOffset":793760,"target":34963},{"buffer":0,"byteLength":96,"byteOffset":793784,"target":34962},{"buffer":0,"byteLength":96,"byteOffset":793880,"target":34962},{"buffer":0,"byteLength":64,"byteOffset":793976,"target":34962},{"buffer":0,"byteLength":24,"byteOffset":794040,"target":34963},{"buffer":0,"byteLength":48,"byteOffset":794064,"target":34962},{"buffer":0,"byteLength":48,"byteOffset":794112,"target":34962},{"buffer":0,"byteLength":32,"byteOffset":794160,"target":34962},{"buffer":0,"byteLength":192,"byteOffset":794192,"target":34962},{"buffer":0,"byteLength":192,"byteOffset":794384,"target":34962},{"buffer":0,"byteLength":128,"byteOffset":794576,"target":34962},{"buffer":0,"byteLength":1272,"byteOffset":794704,"target":34962},{"buffer":0,"byteLength":1272,"byteOffset":795976,"target":34962},{"buffer":0,"byteLength":848,"byteOffset":797248,"target":34962},{"buffer":0,"byteLength":336,"byteOffset":798096,"target":34963}],"samplers":[{"magFilter":9728,"minFilter":9984}],"buffers":[{"uri":"city-kit.bin","byteLength":798432}],"extensionsRequired":["EXT_texture_webp"]}